<svg width="589" height="248" viewBox="0 0 589 248" fill="none" xmlns="http://www.w3.org/2000/svg">
<mask id="mask0" mask-type="alpha" maskUnits="userSpaceOnUse" x="0" y="0" width="589" height="248">
<path fill-rule="evenodd" clip-rule="evenodd" d="M589 0H0V248H589V0Z" fill="white"/>
</mask>
<g mask="url(#mask0)">
<path fill-rule="evenodd" clip-rule="evenodd" d="M290.647 107.716C289.967 107.18 289.556 106.816 289.646 106.773C289.001 107.077 289.476 107.401 290.647 107.716ZM225.78 148.824C228.202 148.284 230.633 147.752 233.08 147.234C231.964 147.01 230.883 146.762 229.85 146.487C228.478 147.26 227.13 148.043 225.78 148.824ZM122.386 247.568C94.5905 248.704 61.7338 247.963 38.2811 240.872C8.44897 231.852 2.64349 217.226 0.507385 202.766C-2.80908 180.337 10.2932 157.523 35.1025 137.728C59.7483 118.067 99.6101 102.135 120.394 81.5749C143.298 58.914 149.646 34.4148 192.003 15.8707C236.124 -3.44359 314.542 -7.99363 348.752 18.5011C365.113 31.1725 378.431 44.4557 395.635 56.9795C411.955 68.8602 429.634 80.4513 448.869 91.5306C469.502 103.415 494.379 114.074 513.431 126.431C522.017 132 528.919 138.546 531.614 145.113C533.14 148.847 533.403 152.645 533.374 156.421C542.795 158.647 550.021 162.313 552.699 167.074C552.837 167.319 552.927 167.578 553.039 167.829C586.31 169.166 606.051 190.88 568.957 199.722C476.635 221.727 363.16 210.108 269.144 226.606C221.258 235.009 174.763 245.428 122.386 247.568Z" fill="#242632"/>
<path d="M289.646 106.773L289.433 106.321L289.863 107.223L289.646 106.773ZM233.08 147.234L233.179 146.744L233.184 147.724L233.08 147.234ZM229.85 146.487L229.605 146.051L229.782 145.952L229.979 146.004L229.85 146.487ZM38.2811 240.872L38.1364 241.351L38.2811 240.872ZM0.507385 202.766L1.00201 202.693V202.693L0.507385 202.766ZM35.1025 137.728L34.7907 137.337V137.337L35.1025 137.728ZM120.394 81.5749L120.746 81.9303L120.746 81.9304L120.394 81.5749ZM192.003 15.8707L191.802 15.4127L191.802 15.4127L192.003 15.8707ZM348.752 18.5011L349.059 18.1058V18.1058L348.752 18.5011ZM395.635 56.9795L395.929 56.5753L395.929 56.5753L395.635 56.9795ZM448.869 91.5306L448.619 91.9638L448.869 91.5306ZM513.431 126.431L513.703 126.011L513.703 126.011L513.431 126.431ZM531.614 145.113L532.076 144.923L532.076 144.924L531.614 145.113ZM533.374 156.421L533.259 156.908L532.871 156.816L532.874 156.417L533.374 156.421ZM552.699 167.074L552.263 167.319L552.263 167.319L552.699 167.074ZM553.039 167.829L553.019 168.329L552.709 168.317L552.582 168.033L553.039 167.829ZM568.957 199.722L568.842 199.235L568.957 199.722ZM269.144 226.606L269.231 227.099L269.144 226.606ZM290.337 108.109C289.996 107.84 289.71 107.604 289.518 107.426C289.427 107.342 289.334 107.25 289.269 107.163C289.243 107.129 289.182 107.044 289.152 106.93C289.136 106.869 289.117 106.755 289.162 106.624C289.212 106.475 289.319 106.375 289.429 106.322L289.863 107.223C289.962 107.175 290.062 107.083 290.109 106.946C290.15 106.825 290.131 106.724 290.119 106.677C290.106 106.628 290.089 106.595 290.082 106.584C290.078 106.576 290.074 106.571 290.072 106.568C290.07 106.565 290.069 106.563 290.069 106.563C290.069 106.563 290.069 106.564 290.071 106.566C290.073 106.568 290.075 106.57 290.078 106.574C290.084 106.581 290.093 106.59 290.104 106.602C290.128 106.626 290.158 106.656 290.198 106.693C290.359 106.842 290.618 107.057 290.956 107.324L290.337 108.109ZM289.86 107.225C289.802 107.252 289.779 107.269 289.776 107.272C289.771 107.276 289.811 107.246 289.837 107.172C289.914 106.956 289.757 106.832 289.792 106.861C289.82 106.886 289.907 106.941 290.091 107.014C290.266 107.084 290.495 107.158 290.777 107.234L290.517 108.199C290.214 108.117 289.944 108.032 289.721 107.943C289.507 107.858 289.296 107.754 289.14 107.62C288.99 107.491 288.762 107.209 288.895 106.836C288.996 106.554 289.259 106.403 289.433 106.321L289.86 107.225ZM225.671 148.336C228.094 147.795 230.527 147.263 232.977 146.745L233.184 147.724C230.739 148.24 228.309 148.772 225.889 149.312L225.671 148.336ZM232.982 147.725C231.857 147.498 230.766 147.248 229.722 146.97L229.979 146.004C231 146.276 232.071 146.521 233.179 146.744L232.982 147.725ZM230.096 146.923C228.726 147.694 227.382 148.475 226.031 149.257L225.53 148.391C226.879 147.611 228.229 146.826 229.605 146.051L230.096 146.923ZM122.406 248.068C94.6054 249.204 61.6756 248.468 38.1364 241.351L38.4258 240.394C61.7919 247.459 94.5755 248.204 122.366 247.069L122.406 248.068ZM38.1364 241.351C23.1592 236.822 14.1519 230.868 8.6228 224.178C3.09216 217.485 1.08685 210.11 0.0127563 202.839L1.00201 202.693C2.06403 209.882 4.02954 217.05 9.39368 223.541C14.7595 230.033 23.5709 235.902 38.4258 240.394L38.1364 241.351ZM0.0127563 202.839C-3.34198 180.151 9.92316 157.179 34.7907 137.337L35.4144 138.119C10.6632 157.868 -2.27618 180.523 1.00201 202.693L0.0127563 202.839ZM34.7907 137.337C47.151 127.477 63.3209 118.556 78.9469 109.555C94.6001 100.539 109.704 91.4464 120.043 81.2194L120.746 81.9304C110.3 92.2632 95.0812 101.416 79.446 110.422C63.7838 119.443 47.6999 128.318 35.4144 138.119L34.7907 137.337ZM120.042 81.2195C125.745 75.5775 130.42 69.8179 134.894 64.0499C139.363 58.2883 143.642 52.5031 148.525 46.8521C158.312 35.5283 170.546 24.7186 191.802 15.4127L192.203 16.3288C171.102 25.5669 158.985 36.2788 149.282 47.5059C144.421 53.1303 140.171 58.8779 135.684 64.6628C131.202 70.4413 126.495 76.2419 120.746 81.9303L120.042 81.2195ZM191.802 15.4127C213.936 5.72344 244.64 -0.252062 274.09 -0.492461C303.521 -0.732703 331.819 4.75396 349.059 18.1058L348.446 18.8964C331.476 5.75353 303.459 0.267835 274.098 0.507506C244.756 0.747022 214.191 6.7037 192.203 16.3288L191.802 15.4127ZM349.059 18.1058C357.252 24.4513 364.683 30.9502 372.203 37.4165C379.727 43.8858 387.345 50.3261 395.929 56.5753L395.341 57.3837C386.721 51.1091 379.078 44.6459 371.551 38.1748C364.022 31.7007 356.614 25.2223 348.446 18.8964L349.059 18.1058ZM395.929 56.5753C412.235 68.4459 429.899 80.0272 449.118 91.0973L448.619 91.9638C429.368 80.8754 411.674 69.2746 395.341 57.3837L395.929 56.5753ZM449.118 91.0973C459.421 97.0314 470.782 102.659 481.97 108.358C493.149 114.053 504.152 119.817 513.703 126.011L513.159 126.85C503.657 120.688 492.696 114.944 481.516 109.249C470.344 103.558 458.95 97.9145 448.619 91.9638L449.118 91.0973ZM513.703 126.011C522.314 131.597 529.323 138.212 532.076 144.923L531.151 145.303C528.516 138.88 521.72 132.404 513.159 126.85L513.703 126.011ZM532.076 144.924C533.641 148.75 533.903 152.627 533.874 156.425L532.874 156.417C532.903 152.663 532.64 148.944 531.151 145.302L532.076 144.924ZM533.489 155.935C538.228 157.054 542.434 158.54 545.802 160.357C549.165 162.17 551.731 164.334 553.135 166.829L552.263 167.319C550.989 165.053 548.603 163.003 545.328 161.237C542.058 159.474 537.941 158.014 533.259 156.908L533.489 155.935ZM553.135 166.829C553.287 167.099 553.407 167.427 553.496 167.626L552.582 168.033C552.446 167.728 552.387 167.539 552.263 167.319L553.135 166.829ZM553.059 167.33C561.427 167.666 568.955 169.283 574.963 171.668C580.958 174.048 585.492 177.213 587.801 180.684C588.96 182.427 589.569 184.263 589.494 186.118C589.419 187.976 588.661 189.802 587.176 191.523C584.226 194.944 578.378 197.99 569.073 200.208L568.842 199.235C578.084 197.032 583.678 194.049 586.419 190.87C587.781 189.291 588.43 187.674 588.495 186.077C588.559 184.477 588.038 182.846 586.969 181.238C584.82 178.008 580.499 174.942 574.594 172.598C568.702 170.259 561.287 168.661 553.019 168.329L553.059 167.33ZM569.073 200.208C522.857 211.224 471.361 213.821 419.704 215.729C368.028 217.638 316.197 218.857 269.231 227.099L269.058 226.114C316.108 217.857 368.022 216.637 419.668 214.729C471.333 212.821 522.735 210.225 568.842 199.235L569.073 200.208ZM269.231 227.099C221.372 235.497 174.827 245.926 122.406 248.068L122.366 247.069C174.699 244.93 221.144 234.522 269.058 226.114L269.231 227.099Z" fill="#646B97"/>
</g>
</svg>
