<svg xmlns="http://www.w3.org/2000/svg" xmlns:xlink="http://www.w3.org/1999/xlink" width="360" height="640" viewBox="0 0 360 640">
    <defs>
        <radialGradient id="a" cx="11.504%" cy="53.623%" r="142.544%" fx="11.504%" fy="53.623%" gradientTransform="matrix(.0149 -.56244 2.51074 .02106 -1.233 .59)">
            <stop offset="0%" stop-color="#DA8750"/>
            <stop offset="100%" stop-color="#FFB500"/>
        </radialGradient>
        <linearGradient id="c" x1="14.879%" x2="19.578%" y1="-.673%" y2="91.239%">
            <stop offset="0%" stop-color="#E55D00"/>
            <stop offset="100%" stop-color="#D42706"/>
        </linearGradient>
        <path id="b" d="M168.689 188.28C270.692 14.145 251.117-39.2 109.964 28.244-31.19 95.688-36.451 179.168 94.18 278.682c214.608 97.148 303.525 72.922 266.75-72.679-36.774-145.6-87.819-139.043-153.134 19.672l-39.107-37.395z"/>
        <linearGradient id="d" x1="58.38%" x2="-12.68%" y1="42.262%" y2="42.262%">
            <stop offset="0%" stop-color="#D52808"/>
            <stop offset="100%" stop-color="#F46400"/>
        </linearGradient>
        <linearGradient id="g" x1="46.412%" x2="50%" y1="5.672%" y2="70.975%">
            <stop offset="0%" stop-color="#D1270A"/>
            <stop offset="100%" stop-color="#EF9F00"/>
        </linearGradient>
        <path id="f" d="M105.986 207.903c114.292-30.16 144.3-11.775 90.021 55.153-54.277 66.928-61.018 112.688-20.221 137.279 40.482 30.4 81.918 23.666 124.305-20.2 63.582-65.8 251.469-329.613 63.582-340.67-125.258-7.37-128.235 17.534-8.93 74.712 34.053 145.808 27.266 195.434-20.36 148.88-47.627-46.556-72.155-100.237-73.584-161.043-10.685-91.531-62.29-121.468-154.813-89.81C13.463 43.86-18.483 111.388 10.15 214.788c62.246 28.02 81.62 62.583 58.123 103.688-23.496 41.105-16.234 65.912 21.788 74.42 45.806-3.972 62.951-42.613 51.434-115.923-11.518-73.31-23.354-96.334-35.51-69.07z"/>
        <linearGradient id="h" x1="11.377%" x2="93.297%" y1="40.131%" y2="30.437%">
            <stop offset="0%" stop-color="#E15101"/>
            <stop offset="100%" stop-color="#F5A100"/>
        </linearGradient>
        <linearGradient id="j" x1="77.031%" x2="50%" y1="11.397%" y2="94.62%">
            <stop offset="0%" stop-color="#B5362C"/>
            <stop offset="97.841%" stop-color="#1B122E"/>
        </linearGradient>
        <linearGradient id="k" x1="74.488%" x2="50%" y1="10.142%" y2="96.071%">
            <stop offset="0%" stop-color="#B5362C"/>
            <stop offset="97.841%" stop-color="#1B122E"/>
        </linearGradient>
        <linearGradient id="l" x1="77.031%" x2="50%" y1="16.897%" y2="88.263%">
            <stop offset="0%" stop-color="#B5362C"/>
            <stop offset="97.841%" stop-color="#1B122E"/>
        </linearGradient>
        <linearGradient id="m" x1="77.031%" x2="50%" y1="10.142%" y2="96.071%">
            <stop offset="0%" stop-color="#B5362C"/>
            <stop offset="97.841%" stop-color="#1B122E"/>
        </linearGradient>
        <linearGradient id="n" x1="70.696%" x2="50%" y1="10.142%" y2="96.071%">
            <stop offset="0%" stop-color="#B5362C"/>
            <stop offset="97.841%" stop-color="#1B122E"/>
        </linearGradient>
        <linearGradient id="o" x1="77.031%" x2="50%" y1="23.141%" y2="81.046%">
            <stop offset="0%" stop-color="#B5362C"/>
            <stop offset="97.841%" stop-color="#1B122E"/>
        </linearGradient>
        <linearGradient id="p" x1="77.031%" x2="50%" y1="26.361%" y2="77.324%">
            <stop offset="0%" stop-color="#B5362C"/>
            <stop offset="97.841%" stop-color="#1B122E"/>
        </linearGradient>
        <linearGradient id="q" x1="64.013%" x2="50%" y1="10.142%" y2="96.071%">
            <stop offset="0%" stop-color="#B5362C"/>
            <stop offset="97.841%" stop-color="#1B122E"/>
        </linearGradient>
        <linearGradient id="r" x1="77.031%" x2="50%" y1="12.419%" y2="93.439%">
            <stop offset="0%" stop-color="#B5362C"/>
            <stop offset="97.841%" stop-color="#1B122E"/>
        </linearGradient>
        <linearGradient id="s" x1="62.511%" x2="50%" y1="10.142%" y2="96.071%">
            <stop offset="0%" stop-color="#B5362C"/>
            <stop offset="97.841%" stop-color="#1B122E"/>
        </linearGradient>
        <linearGradient id="t" x1="77.031%" x2="50%" y1="31.191%" y2="71.741%">
            <stop offset="0%" stop-color="#B5362C"/>
            <stop offset="97.841%" stop-color="#1B122E"/>
        </linearGradient>
        <linearGradient id="u" x1="68.55%" x2="50%" y1="10.142%" y2="96.071%">
            <stop offset="0%" stop-color="#B5362C"/>
            <stop offset="97.841%" stop-color="#1B122E"/>
        </linearGradient>
        <linearGradient id="v" x1="77.031%" x2="50%" y1="17.06%" y2="88.075%">
            <stop offset="0%" stop-color="#B5362C"/>
            <stop offset="97.841%" stop-color="#1B122E"/>
        </linearGradient>
        <linearGradient id="w" x1="71.728%" x2="50%" y1="10.142%" y2="96.071%">
            <stop offset="0%" stop-color="#B5362C"/>
            <stop offset="97.841%" stop-color="#1B122E"/>
        </linearGradient>
        <linearGradient id="x" x1="77.031%" x2="50%" y1="23.031%" y2="81.174%">
            <stop offset="0%" stop-color="#B5362C"/>
            <stop offset="97.841%" stop-color="#1B122E"/>
        </linearGradient>
        <linearGradient id="y" x1="77.031%" x2="50%" y1="26.445%" y2="77.227%">
            <stop offset="0%" stop-color="#B5362C"/>
            <stop offset="97.841%" stop-color="#1B122E"/>
        </linearGradient>
        <linearGradient id="z" x1="63.632%" x2="50%" y1="10.142%" y2="96.071%">
            <stop offset="0%" stop-color="#B5362C"/>
            <stop offset="97.841%" stop-color="#1B122E"/>
        </linearGradient>
        <linearGradient id="A" x1="77.031%" x2="50%" y1="12.613%" y2="93.215%">
            <stop offset="0%" stop-color="#B5362C"/>
            <stop offset="97.841%" stop-color="#1B122E"/>
        </linearGradient>
        <linearGradient id="B" x1="62.672%" x2="50%" y1="10.142%" y2="96.071%">
            <stop offset="0%" stop-color="#B5362C"/>
            <stop offset="97.841%" stop-color="#1B122E"/>
        </linearGradient>
        <linearGradient id="C" x1="77.031%" x2="50%" y1="31.096%" y2="71.851%">
            <stop offset="0%" stop-color="#B5362C"/>
            <stop offset="97.841%" stop-color="#1B122E"/>
        </linearGradient>
        <linearGradient id="D" x1="77.031%" x2="50%" y1="11.528%" y2="94.469%">
            <stop offset="0%" stop-color="#B5362C"/>
            <stop offset="97.841%" stop-color="#1B122E"/>
        </linearGradient>
        <linearGradient id="E" x1="68.434%" x2="50%" y1="10.142%" y2="96.071%">
            <stop offset="0%" stop-color="#B5362C"/>
            <stop offset="97.841%" stop-color="#1B122E"/>
        </linearGradient>
    </defs>
    <g fill="none" fill-rule="evenodd">
        <path fill="url(#a)" fill-rule="nonzero" d="M266.167 355.034h360v640h-360z" transform="translate(-266.167 -355.034)"/>
        <g opacity=".166">
            <g transform="rotate(90 62 333)">
                <mask id="e" fill="#fff">
                    <use xlink:href="#b"/>
                </mask>
                <use fill="url(#c)" fill-rule="nonzero" xlink:href="#b"/>
                <path fill="url(#d)" fill-rule="nonzero" d="M411.908 258.762C514.7 84.602 495.268 31.421 353.61 99.218c-141.66 67.796-147.214 151.14-16.664 250.032 214.7 96.247 303.873 71.765 267.52-73.444-36.353-145.21-87.52-138.493-153.501 20.151l-39.057-37.195z" mask="url(#e)" transform="rotate(-30 427.696 238.76)"/>
            </g>
            <g transform="rotate(90 199.5 185.5)">
                <mask id="i" fill="#fff">
                    <use xlink:href="#f"/>
                </mask>
                <use fill="url(#g)" fill-rule="nonzero" xlink:href="#f"/>
                <path fill="url(#h)" fill-rule="nonzero" d="M167.458 193.8c114.915-29.996 145.085-11.712 90.512 54.854-54.574 66.566-61.35 112.078-20.332 136.536 40.703 30.234 82.364 23.537 124.982-20.091 63.928-65.443 252.838-327.829 63.928-338.825-125.94-7.33-128.933 17.438-8.979 74.307 34.239 145.019 27.415 194.376-20.47 148.073-47.887-46.303-72.548-99.693-73.985-160.17C312.371-2.553 260.485-32.327 167.458-.842 74.431 30.645 42.312 97.81 71.101 200.65c62.584 27.868 82.064 62.244 58.44 103.126-23.625 40.883-16.323 65.555 21.906 74.016 46.056-3.95 63.293-42.38 51.713-115.294-11.58-72.914-3.208-86.749 25.114-41.505L167.458 193.8z" mask="url(#i)" transform="rotate(90 284.607 195.388)"/>
            </g>
        </g>
        <g opacity=".2">
            <path fill="url(#j)" d="M328.16 60.474v-.47c-.01-2.102-1.27-4.074-3.297-4.843-2.611-.99-5.508.385-6.47 3.073-.108.3-.272.712-.42 1.079l-.457 1.144c-.31.768-.639 1.53-.964 2.295a79.079 79.079 0 0 1-2.11 4.5 239.632 239.632 0 0 1-2.295 4.333 54.574 54.574 0 0 1-2.43 4.163c-.453.611-.887 1.316-1.395 1.853l-.375.434-.19.22-.264.275-1.057 1.119c-1.292 1.553-2.35 3.154-3.27 4.751-.924 1.591-1.768 3.18-2.66 4.699a36.833 36.833 0 0 1-2.95 4.317c-2.17 2.689-4.805 4.802-7.301 6.556-.61.465-1.259.857-1.87 1.286-.589.456-1.25.804-1.852 1.233-.57.426-1.297.847-1.95 1.303-.66.46-1.35.876-2.025 1.318a199.157 199.157 0 0 1-8.395 5.085l-9.002 5.096.099.993c1.846.458 3.675.57 5.509.551a31.622 31.622 0 0 0 5.451-.549c3.603-.646 7.105-1.861 10.411-3.513.822-.422 1.65-.835 2.439-1.326.802-.478 1.575-.925 2.38-1.562.788-.608 1.585-1.204 2.266-1.942.699-.716 1.397-1.424 1.966-2.249.298-.397.594-.794.875-1.201.277-.41.522-.838.768-1.264.242-.428.493-.848.72-1.276l.637-1.304c.843-1.73 1.49-3.494 2.2-5.175.683-1.684 1.384-3.33 2.186-4.874a28.575 28.575 0 0 1 2.71-4.345 13.36 13.36 0 0 1 3.474-3.222l.982-.5.247-.129.325-.179.653-.363c.91-.47 1.68-1.038 2.518-1.589.482-.352.948-.72 1.405-1.094-.48 2.274-1.063 4.518-1.807 6.732-.939 2.775-2.154 5.458-3.912 8.16l.578.8c.767-.285 1.561-.594 2.282-1.018.76-.383 1.451-.864 2.151-1.36 1.376-1.014 2.614-2.217 3.755-3.51 2.266-2.602 4.041-5.597 5.444-8.701.35-.78.665-1.567.984-2.358a56.1 56.1 0 0 0 .846-2.399c.537-1.607.975-3.239 1.344-4.883a47.642 47.642 0 0 0 1.048-7.506l.053-1.284c.014-.452.013-.83.012-1.38" transform="rotate(95 236.47 -77.708)"/>
            <path fill="url(#k)" d="M274.382 133.98c8.577-4.775 16.994-9.837 25.026-15.326 4.016-2.737 7.94-5.587 11.644-8.623.917-.764 1.86-1.502 2.745-2.29l1.341-1.166 1.297-1.198c1.71-1.606 3.352-3.262 4.78-4.998.361-.432.727-.862 1.038-1.31.318-.445.667-.88.96-1.327l.832-1.352c.245-.453.45-.906.681-1.351.394-.892.7-1.776.844-2.578l.872-3.702c1.364-5.139 3.537-9.869 6.171-14.24 2.638-4.372 5.65-8.45 8.957-12.257 3.332-3.788 6.9-7.362 11.052-10.395l.76.606c-1.893 4.7-4 9.143-6.062 13.554-2.077 4.395-4.147 8.727-6.102 13.025-1.942 4.3-3.909 8.505-5.617 12.687l-1.276 3.335c-.552 1.553-1.293 2.899-2.073 4.157-.408.601-.808 1.216-1.23 1.792l-1.314 1.638c-.438.538-.907 1.021-1.36 1.531-.448.516-.926.979-1.4 1.444-1.877 1.896-3.863 3.564-5.882 5.149l-1.522 1.17-1.545 1.12c-1.023.758-2.08 1.446-3.121 2.164-4.23 2.756-8.57 5.234-12.96 7.574-8.835 4.582-17.855 8.642-27.139 12.054l-.397-.887z" transform="rotate(95 236.47 -77.708)"/>
            <path fill="url(#l)" d="M194.998 238.828c2.013-2.281 4.135-4.435 6.333-6.515 2.195-2.082 4.46-4.09 6.795-6.024 4.67-3.87 9.588-7.475 14.97-10.584l2.029-1.158 2.11-1.066 1.06-.528 1.107-.482 2.192-.943c2.449-.99 4.729-2.266 6.893-3.734 2.12-1.545 4.09-3.331 5.999-5.266 1.884-1.97 3.68-4.118 5.474-6.334 3.519-4.515 7.025-9.323 10.5-14.219 3.51-4.899 6.967-9.767 10.2-14.817 3.251-5.036 6.41-10.15 9.805-15.164 1.68-2.52 3.471-4.982 5.322-7.43l1.45-1.797.722-.906.767-.874 1.544-1.752 1.654-1.673.831-.84c.289-.27.59-.529.886-.794l1.79-1.582 1.925-1.456c.326-.238.642-.492.979-.716l1.034-.649 3.836-2.373c.602-.342 1.18-.768 1.765-1.154.583-.403 1.173-.77 1.75-1.201 2.319-1.632 4.607-3.435 6.96-5.217a247.937 247.937 0 0 1 7.29-5.457c1.303-.877 2.56-1.794 3.938-2.62.685-.415 1.342-.858 2.052-1.25l2.132-1.173c2.91-1.464 5.956-2.843 9.205-3.683.803-.233 1.605-.477 2.431-.62.82-.167 1.642-.333 2.466-.485.823-.156 1.656-.198 2.485-.3l2.362-.241c2.45-.188 4.965-.714 7.455-1.5 4.994-1.563 9.853-4.14 14.328-7.325a64.991 64.991 0 0 0 12.185-11.359c3.623-4.315 6.687-9.15 9.22-14.338 1.23-2.609 2.35-5.298 3.299-8.078.949-2.78 1.71-5.641 2.414-8.564l.975.079a58.66 58.66 0 0 1-.237 9.186c-.374 3.058-.924 6.125-1.739 9.14a65.496 65.496 0 0 1-3.18 8.845c-1.276 2.88-2.807 5.655-4.517 8.325a62.723 62.723 0 0 1-12.605 14.33 57.344 57.344 0 0 1-7.925 5.6c-2.805 1.669-5.811 3.047-8.969 4.145-3.164 1.072-6.508 1.817-9.998 2.05l-2.082.175c-.649.069-1.31.075-1.95.189-1.275.25-2.584.349-3.838.72-2.548.55-5.027 1.495-7.497 2.565-2.463 1.1-4.89 2.48-7.32 3.95-2.43 1.514-4.859 3.151-7.358 4.812-1.267.829-2.507 1.668-3.833 2.469-.658.402-1.3.816-1.97 1.206l-2.034 1.154c-.665.396-1.386.739-2.086 1.097-.708.35-1.389.728-2.128 1.037l-4.08 1.779-.936.408c-.308.146-.602.324-.906.484l-1.825.981-1.762 1.135c-.295.191-.594.375-.886.573l-.851.635-1.703 1.287-1.638 1.397-.822.701-.787.749-1.567 1.513c-.51.52-1 1.061-1.5 1.595-.495.537-1.004 1.063-1.47 1.63-.94 1.128-1.915 2.23-2.794 3.418-3.612 4.668-6.828 9.682-9.773 14.867-2.94 5.19-5.674 10.551-8.254 15.939-2.612 5.392-5.158 10.911-8.488 16.197-.875 1.307-1.702 2.634-2.694 3.89l-.718.957c-.234.321-.481.637-.753.938l-1.582 1.835c-2.208 2.389-4.705 4.591-7.48 6.461-2.802 1.84-5.848 3.297-8.988 4.375-2.632.902-5.196 1.88-7.807 3.11-5.202 2.38-10.353 5.21-15.49 8.12-5.147 2.905-10.264 5.958-15.476 8.952l-.623-.76z" transform="rotate(95 236.47 -77.708)"/>
            <path fill="url(#m)" d="M384.127 48.779c1.137 1.625 1.762 3.357 2.23 5.124.452 1.77.662 3.578.668 5.39a24.785 24.785 0 0 1-.603 5.41c-.374 1.79-1.055 3.53-2.071 5.097-.986 1.582-2.376 2.943-3.726 4.212-1.373 1.267-2.783 2.404-4.008 3.64-1.285 1.187-2.418 2.481-3.64 3.738a337.3 337.3 0 0 1-3.67 3.969c-.662.63-1.32 1.313-2.032 1.914-.358.298-.724.587-1.093.88l-.562.427a31.677 31.677 0 0 1-2.554 1.763c-.698.424-1.399.843-2.086 1.281l-4.136 2.579c-1.394.82-2.786 1.616-4.247 2.289-2.903 1.372-5.923 2.515-9.035 3.566a93.353 93.353 0 0 1-4.778 1.47 77.674 77.674 0 0 1-5.087 1.25l-.672-.74c.736-1.781 1.744-3.281 2.822-4.72a35.454 35.454 0 0 1 3.529-3.948 44.258 44.258 0 0 1 8.185-6.282c2.934-1.739 6.157-2.9 9.375-3.985 1.601-.566 3.211-1.09 4.885-1.47.204-.05.422-.098.623-.137l.556-.112 1.141-.197c.768-.132 1.52-.32 2.306-.487.744-.23 1.528-.437 2.251-.751.717-.322 1.448-.654 2.09-1.103.33-.218.656-.44.966-.68.298-.256.591-.517.877-.785.587-.524 1.056-1.164 1.52-1.794.855-1.326 1.433-2.835 1.74-4.412.331-1.567.488-3.131.752-4.603.248-1.478.692-2.846 1.175-4.241.48-1.394.968-2.807 1.49-4.25 1.069-2.894 2.155-5.885 3.823-9.2l.996-.102z" transform="rotate(95 236.47 -77.708)"/>
            <path fill="url(#n)" d="M347.146 81.312c.878-1.661 2.007-3.11 3.213-4.515 1.208-1.4 2.523-2.707 3.877-3.977 1.384-1.229 2.797-2.442 4.272-3.569.735-.57 1.499-1.095 2.253-1.638.183-.134.393-.274.554-.402l.478-.38.949-.75c.603-.529 1.147-1.116 1.674-1.699l.702-.949.35-.464.304-.5c.212-.322.416-.646.634-.96.198-.328.388-.66.602-.976.108-.158.21-.32.326-.472.102-.163.192-.332.299-.493.2-.328.436-.638.645-.968a76.396 76.396 0 0 0 2.492-4.18c.823-1.48 1.644-3.05 2.562-4.759l.637-.019c.91 1.85 1.185 3.824 1.177 5.8a17.396 17.396 0 0 1-1.136 5.864c-.185.471-.41.93-.635 1.388-.109.23-.232.454-.351.68-.134.219-.281.43-.423.643-.29.425-.583.846-.904 1.247-.35.383-.71.755-1.065 1.127l-.55.541-.6.494-1.198.966c-.408.308-.849.574-1.263.865-.425.28-.815.602-1.264.836l-1.314.741-.654.365c-.217.12-.4.203-.602.307-.789.4-1.59.783-2.363 1.21-1.59.79-3.124 1.668-4.65 2.574a58.73 58.73 0 0 0-4.444 2.923 37.72 37.72 0 0 0-2.105 1.632c-.676.566-1.363 1.164-1.94 1.797l-.54-.33zM400.978 65.56c.878-1.66 2.007-3.11 3.213-4.515 1.208-1.4 2.523-2.707 3.877-3.977 1.384-1.23 2.797-2.442 4.272-3.568.735-.571 1.499-1.096 2.253-1.64.184-.132.393-.273.554-.4l.478-.381.949-.75c.603-.529 1.147-1.116 1.674-1.699l.702-.949.35-.464.304-.5c.212-.322.417-.646.635-.96.198-.327.387-.66.6-.976.11-.158.212-.319.327-.472.102-.163.192-.332.299-.493.2-.328.436-.638.645-.968a76.03 76.03 0 0 0 2.492-4.18c.823-1.48 1.644-3.05 2.563-4.76l.636-.017c.91 1.85 1.185 3.823 1.177 5.8a17.381 17.381 0 0 1-1.136 5.863c-.185.471-.41.93-.635 1.388-.109.23-.232.454-.35.68-.135.218-.281.43-.423.644-.29.424-.584.845-.905 1.246-.35.383-.71.755-1.065 1.128l-.55.54-.599.494-1.198.967c-.409.306-.85.573-1.264.864-.425.28-.814.603-1.264.836l-1.313.74-.655.366c-.217.12-.4.204-.602.308-.789.398-1.59.782-2.363 1.209-1.59.79-3.124 1.669-4.65 2.574a58.49 58.49 0 0 0-4.444 2.923 37.289 37.289 0 0 0-2.105 1.632c-.676.566-1.363 1.165-1.94 1.798l-.54-.33z" transform="rotate(95 236.47 -77.708)"/>
            <path fill="url(#o)" d="M290.07 173.363c2.92-2.073 5.78-4.24 8.544-6.482 2.761-2.245 5.452-4.554 7.937-7.008 2.485-2.434 4.823-5.004 6.622-7.683l.705-1.024.879-1.224c.295-.401.588-.834.891-1.209l.919-1.1c1.22-1.504 2.506-2.813 3.775-4.2 2.59-2.63 5.07-5.378 7.69-7.928a55.482 55.482 0 0 1 8.475-6.868c3.044-1.992 6.201-3.824 9.507-5.43 3.318-1.591 6.729-3.04 10.484-3.981l.572.8c-2.08 3.237-4.45 6.039-6.881 8.74a120.233 120.233 0 0 1-7.614 7.616c-2.608 2.422-5.399 4.595-8.307 6.606-2.934 1.993-5.839 3.988-8.546 6.193-1.296 1.12-2.67 2.223-3.854 3.382l-.927.858c-.302.285-.546.573-.824.86l-.819.862c-.124.123-.315.35-.472.524l-.496.555c-2.66 2.943-5.609 5.283-8.632 7.432a102.854 102.854 0 0 1-9.362 5.785c-3.2 1.747-6.444 3.364-9.794 4.787l-.472-.863z" transform="rotate(95 236.47 -77.708)"/>
            <path fill="url(#p)" d="M239.752 265.344l.07-.024a907.227 907.227 0 0 0 30.227-10.744c5.006-1.885 10.002-3.797 14.969-5.81a653.916 653.916 0 0 0 7.449-3.043l7.373-3.072c4.92-2.063 9.873-4.108 14.778-6.287 4.897-2.198 9.78-4.465 14.55-6.975 4.761-2.524 9.458-5.211 13.871-8.348 2.21-1.557 4.345-3.232 6.35-5.053 2.01-1.81 3.864-3.807 5.462-5.978l-.49-.4c-3.648 3.84-8.064 6.793-12.603 9.448-4.572 2.623-9.347 4.9-14.193 7.015a310.605 310.605 0 0 1-14.753 5.926 1114.981 1114.981 0 0 1-14.99 5.52c-2.51.9-5.034 1.857-7.523 2.799-2.48.94-4.974 1.858-7.471 2.77l-15.029 5.408-.796.287a1002.87 1002.87 0 0 0 8.617-5.409c3.88-2.486 7.773-4.971 11.584-7.701 3.613-2.554 7.534-4.922 11.452-7.225 3.928-2.307 7.925-4.522 11.947-6.69a469.642 469.642 0 0 1 24.506-12.311c4.15-1.91 8.316-3.793 12.538-5.514l1.582-.66 1.614-.71 1.61-.71.807-.356.784-.403 3.128-1.627 3.015-1.833a61.38 61.38 0 0 0 10.881-8.903c3.265-3.364 6.114-7.096 8.6-11.018 2.492-3.924 4.627-8.033 6.613-12.181l1.47-3.114c.512-1.006.982-2.032 1.528-3.024a88.694 88.694 0 0 1 3.468-5.859c4.951-7.639 10.68-14.828 16.832-21.588l-.456-.438a179.456 179.456 0 0 0-9.25 10.225c-2.95 3.528-5.785 7.162-8.384 10.976a89.936 89.936 0 0 0-3.697 5.865c-.588 1-1.103 2.044-1.658 3.065l-1.55 3.057c-2.082 4.058-4.294 8.033-6.823 11.779-2.523 3.746-5.37 7.259-8.582 10.39a58.542 58.542 0 0 1-10.604 8.194l-2.915 1.664-3.017 1.48-.755.368-.778.322-1.553.644-1.553.645-1.61.631c-4.321 1.654-8.568 3.462-12.8 5.299a474.59 474.59 0 0 0-24.984 11.877c-4.106 2.1-8.19 4.248-12.228 6.502-4.043 2.263-8.044 4.553-11.988 7.21-3.708 2.536-7.604 4.916-11.517 7.279a1067.396 1067.396 0 0 1-11.82 6.993c-7.913 4.618-15.903 9.133-23.876 13.643a3.147 3.147 0 0 0-1.435 3.746 3.165 3.165 0 0 0 4.006 1.98z" transform="rotate(95 236.47 -77.708)"/>
            <path fill="url(#q)" d="M411.082 113.132c-.193.2-.418.66-.584 1.076-.174.429-.334.877-.488 1.33l-.91 2.745a92.886 92.886 0 0 1-2.03 5.499c-1.496 3.638-3.356 7.182-5.66 10.503a48.507 48.507 0 0 1-1.839 2.421c-.323.393-.643.79-.984 1.17l-.505.576-.438.529c-.569.706-1.173 1.367-1.68 2.129l-.79 1.105c-.264.366-.49.77-.738 1.152-1.983 3.065-3.626 6.41-5.207 9.864-1.594 3.455-2.98 7.092-4.691 10.735-1.72 3.626-3.96 7.203-6.967 10.27l-1.14 1.13c-.376.357-.738.674-1.112 1.008-.749.654-1.5 1.306-2.274 1.932a68.531 68.531 0 0 1-4.788 3.593 55.57 55.57 0 0 1-5.14 3.14c-.892.474-1.793.93-2.727 1.335-.93.41-1.866.793-2.872 1.09l-.436-.676 14.372-17.812c2.096-2.754 4.03-5.727 6.061-8.841 2.042-3.104 3.996-6.429 5.948-9.828 1.96-3.396 4.057-6.833 6.592-10.043.325-.395.624-.803.971-1.185l1.036-1.146c.665-.78 1.447-1.475 2.185-2.194l.554-.53.509-.461c.343-.303.67-.626 1-.944.661-.641 1.293-1.313 1.916-1.998 2.493-2.746 4.647-5.848 6.563-9.129a93.847 93.847 0 0 0 2.727-5.047l1.334-2.587c.228-.433.462-.866.723-1.298.13-.215.268-.43.427-.645.163-.212.33-.434.634-.636l.448.668z" transform="rotate(95 236.47 -77.708)"/>
            <path fill="url(#r)" d="M274.116 230.63a63.833 63.833 0 0 0 5.45-2.851 82.457 82.457 0 0 0 5.223-3.266c.847-.584 1.704-1.16 2.534-1.772.84-.6 1.677-1.21 2.484-1.859a93.066 93.066 0 0 0 4.776-4.01c.786-.687 1.533-1.424 2.295-2.144.753-.73 1.468-1.506 2.205-2.261.724-.77 1.415-1.584 2.116-2.386.685-.81 1.322-1.637 1.987-2.458 2.573-3.307 4.891-6.687 7.192-9.964 4.588-6.547 9.226-12.714 14.837-17.313 1.42-1.117 2.854-2.199 4.37-3.127.375-.24.742-.493 1.122-.722l1.176-.622 2.621-1.398c2.137-1.142 4.061-2.504 5.809-3.954.448-.357.885-.721 1.295-1.1.416-.376.844-.744 1.248-1.13.782-.782 1.59-1.553 2.319-2.358 3.01-3.181 5.572-6.574 7.987-9.987 2.398-3.43 4.617-6.902 6.766-10.374 4.294-6.935 8.393-13.856 12.795-20.28 1.093-1.609 2.222-3.172 3.41-4.636.588-.747 1.203-1.437 1.806-2.148l.935-1.008c.32-.335.68-.658 1.018-.988a60.807 60.807 0 0 1 9.003-7.24 73.51 73.51 0 0 1 7.638-4.405c-.812.645-1.611 1.304-2.407 1.967-4.638 3.934-9.012 8.15-13.25 12.518-2.097 2.198-4.177 4.426-6.169 6.726-1.008 1.142-1.984 2.308-2.97 3.471a186.484 186.484 0 0 0-2.864 3.558 141.985 141.985 0 0 0-10.302 15.083c-.758 1.323-1.534 2.634-2.263 3.976a206.82 206.82 0 0 0-2.143 4.049 153.541 153.541 0 0 0-3.967 8.29 109.263 109.263 0 0 0-1.78 4.27c-.29.749-.56 1.36-.838 2.016l-.826 1.95a74.217 74.217 0 0 1-3.856 7.589 89.632 89.632 0 0 1-10.101 14.005c-.984 1.07-1.928 2.195-2.966 3.225-.511.523-1 1.077-1.53 1.583l-1.57 1.55a86.924 86.924 0 0 1-3.266 2.993 68.025 68.025 0 0 1-3.411 2.847l.465.866c1.445-.556 2.786-1.247 4.15-1.94a88.957 88.957 0 0 0 3.962-2.293c2.59-1.623 5.067-3.44 7.457-5.385a72.051 72.051 0 0 0 12.714-13.565c.888-1.291 1.854-2.538 2.624-3.914l1.217-2.028.607-1.016.541-1.054 1.064-2.122c.35-.703.725-1.44 1.017-2.072.61-1.312 1.262-2.613 1.893-3.923 1.296-2.61 2.682-5.185 4.07-7.762a197.048 197.048 0 0 1 2.148-3.834c.709-1.283 1.45-2.55 2.18-3.821 2.94-5.08 5.904-10.157 8.963-15.191 3.036-5.05 6.206-10.034 9.641-14.84 3.454-4.781 7.216-9.361 11.482-13.4 1.084-.984 2.162-1.982 3.297-2.9.567-.461 1.134-.925 1.725-1.348.589-.426 1.157-.89 1.764-1.284 2.392-1.643 4.92-3.079 7.571-4.066a1.556 1.556 0 0 0 .98-1.763 1.547 1.547 0 0 0-1.822-1.219l-.028.006a80.1 80.1 0 0 0-6.035 1.477c-1.986.54-3.94 1.176-5.898 1.824-3.895 1.344-7.753 2.878-11.501 4.734-3.752 1.842-7.393 4.028-10.796 6.631-.427.327-.86.631-1.284.978l-1.269 1.07c-.81.73-1.622 1.473-2.362 2.249-1.52 1.535-2.925 3.126-4.273 4.737-2.693 3.232-5.103 6.586-7.443 9.938l-6.895 9.991c-2.292 3.286-4.58 6.531-6.966 9.621-2.362 3.105-4.82 6.072-7.393 8.735a49.44 49.44 0 0 1-3.966 3.695 26.49 26.49 0 0 1-4.151 2.89l-2.676 1.524-1.47.843c-.476.304-.935.632-1.403.948-1.9 1.224-3.61 2.686-5.293 4.149-3.34 2.967-6.133 6.367-8.635 9.827-2.484 3.48-4.659 7.056-6.685 10.609-2.043 3.544-3.946 7.069-5.972 10.414-.516.819-1.018 1.663-1.548 2.468-.548.786-1.056 1.6-1.622 2.387a101.684 101.684 0 0 1-3.563 4.64c-5.019 6.03-10.783 11.65-17.021 16.739l.5.845z" transform="rotate(95 236.47 -77.708)"/>
            <path fill="url(#s)" d="M419.273 248.154s2.51-6.927-1.353-15.01c-3.861-8.081 1.545-14.046 6.373-22.899 4.828-8.851 9.076-15.01 18.345-23.668 9.27-8.66 11.2-16.165 14.29-19.82 3.09-3.656 13.132-9.43 16.608-19.051 3.476-9.622 26.07-21.552 26.07-21.552s-15.642 14.047-19.118 22.514c-3.476 8.467-15.256 29.827-24.718 37.331-9.463 7.505-23.946 35.204-25.297 40.983-1.352 5.778-11.2 21.172-11.2 21.172" transform="rotate(95 236.47 -77.708)"/>
            <path fill="url(#t)" d="M441.79 172.612c.418-1.748.98-3.442 1.616-5.117.616-1.686 1.376-3.312 2.154-4.938 1.624-3.213 3.528-6.33 5.866-9.167.59-.705 1.158-1.43 1.813-2.087.643-.667 1.252-1.37 1.971-1.968.708-.61 1.365-1.277 2.139-1.82l1.133-.845.57-.422.492-.378c2.654-1.889 5.128-4.371 7.564-6.797 1.197-1.255 2.416-2.485 3.586-3.783 1.203-1.259 2.376-2.556 3.563-3.842 1.201-1.271 2.358-2.593 3.566-3.867l3.558-3.896c4.727-5.218 9.415-10.53 13.633-16.17l1.24 1.05-6.336 5.96-6.372 5.917c-4.255 3.942-8.54 7.873-13.02 11.615-4.482 3.74-9.182 7.251-14.229 10.346-2.522 1.549-5.118 3.012-7.85 4.303-.691.31-1.37.635-2.079.922l-1.066.425c-.349.14-.731.286-1.032.418l-3.813 1.617c-5.061 2.383-10.008 5.231-14.944 8.099l-3.686 2.199c-1.23.733-2.434 1.516-3.665 2.253-2.46 1.476-4.866 3.055-7.299 4.588-9.694 6.212-19.311 12.611-29.036 18.938l-.323-.401c8.415-8.014 17.416-15.356 26.745-22.303 9.41-6.832 19.059-13.448 29.992-18.298 1.403-.56 2.825-1.091 4.236-1.635l.992-.365.963-.348c.641-.232 1.274-.519 1.915-.77 2.55-1.077 5.06-2.353 7.526-3.73a135.507 135.507 0 0 0 7.299-4.397c2.415-1.523 4.79-3.119 7.173-4.72 4.733-3.247 9.41-6.627 13.894-10.253 1.125-.9 2.222-1.836 3.326-2.763l1.646-1.403 1.613-1.44c1.068-.965 2.139-1.931 3.191-2.915 1.04-.995 2.09-1.988 3.088-3.012a.818.818 0 0 1 1.152-.019.81.81 0 0 1 .1 1.05l-.012.018c-4.093 5.79-8.025 11.682-12.18 17.459-4.167 5.762-8.633 11.34-13.786 16.389-.622.646-1.303 1.254-1.965 1.873-.679.61-1.313 1.243-2.034 1.822l-2.136 1.751c-.74.564-1.549 1.083-2.32 1.62l-1.097.744-1.035.685c-.712.424-1.334.99-2.002 1.49-.675.495-1.28 1.084-1.917 1.636-.648.54-1.226 1.164-1.827 1.765-4.727 4.898-8.59 10.809-11.764 17.082l-.49-.165z" transform="rotate(95 236.47 -77.708)"/>
            <path fill="url(#j)" d="M410.12 81.458v.47c.01 2.103 1.27 4.073 3.298 4.843 2.611.99 5.508-.386 6.47-3.073.107-.3.272-.712.42-1.079l.457-1.145c.31-.767.639-1.528.964-2.294a78.49 78.49 0 0 1 2.11-4.5c.755-1.46 1.524-2.91 2.295-4.334a54.768 54.768 0 0 1 2.43-4.162c.453-.611.886-1.316 1.395-1.853l.375-.434.19-.22.264-.275 1.056-1.119c1.293-1.553 2.35-3.154 3.27-4.752.925-1.59 1.768-3.18 2.662-4.698a36.83 36.83 0 0 1 2.948-4.317c2.17-2.69 4.806-4.802 7.302-6.556.61-.466 1.26-.857 1.869-1.286.59-.456 1.252-.805 1.853-1.233.57-.425 1.297-.847 1.95-1.303.66-.461 1.35-.877 2.025-1.318 2.72-1.733 5.501-3.437 8.395-5.085l9.002-5.097-.099-.992c-1.845-.459-3.675-.57-5.51-.552a31.74 31.74 0 0 0-5.45.55c-3.603.646-7.105 1.861-10.411 3.513-.822.422-1.65.835-2.438 1.326-.803.477-1.576.924-2.381 1.562-.788.608-1.585 1.205-2.266 1.942-.698.715-1.398 1.424-1.966 2.249-.298.397-.594.794-.875 1.2-.277.41-.523.839-.768 1.265-.243.428-.493.847-.72 1.276l-.638 1.304c-.842 1.73-1.489 3.495-2.2 5.175-.682 1.684-1.383 3.329-2.185 4.874a28.579 28.579 0 0 1-2.71 4.345 13.372 13.372 0 0 1-3.474 3.223l-.983.5-.246.128-.326.179-.652.363c-.91.47-1.68 1.037-2.518 1.588-.482.353-.948.72-1.405 1.095.48-2.273 1.063-4.518 1.807-6.733.938-2.774 2.153-5.457 3.911-8.16l-.577-.8c-.767.287-1.562.595-2.282 1.018-.76.383-1.451.866-2.152 1.36-1.375 1.015-2.613 2.218-3.754 3.51-2.266 2.602-4.042 5.598-5.444 8.702-.35.78-.665 1.567-.985 2.358-.3.792-.582 1.594-.846 2.398a49.769 49.769 0 0 0-1.343 4.884 47.307 47.307 0 0 0-.83 4.979 49.36 49.36 0 0 0-.218 2.527l-.054 1.283c-.014.452-.013.83-.011 1.38" transform="rotate(95 236.47 -77.708)"/>
            <path fill="url(#u)" d="M390.371 170.132a3.194 3.194 0 0 0 4.373 1.012l.063-.04a908.992 908.992 0 0 0 27.054-17.314c4.457-2.971 8.897-5.964 13.286-9.05a659.228 659.228 0 0 0 6.575-4.651l6.496-4.663c4.33-3.123 8.698-6.236 12.99-9.469 4.277-3.25 8.524-6.562 12.606-10.086 4.069-3.535 8.038-7.214 11.627-11.264 1.8-2.016 3.499-4.129 5.038-6.353 1.545-2.217 2.897-4.576 3.956-7.05l-.571-.276c-2.678 4.56-6.31 8.433-10.133 12.044-3.862 3.589-8.002 6.887-12.25 10.043a310.426 310.426 0 0 1-13.046 9.114 1111.693 1111.693 0 0 1-13.374 8.773c-2.244 1.445-4.49 2.95-6.704 4.431a637.203 637.203 0 0 1-6.661 4.392l-13.436 8.673-.712.46c2.4-2.393 4.793-4.794 7.172-7.215 3.215-3.298 6.447-6.597 9.54-10.116 2.942-3.302 6.226-6.494 9.522-9.624 3.307-3.133 6.701-6.195 10.13-9.216a470.025 470.025 0 0 1 21.104-17.534c3.614-2.8 7.25-5.576 10.978-8.209l1.393-1 1.413-1.057 1.411-1.058.705-.528.673-.57 2.68-2.294 2.524-2.465a61.093 61.093 0 0 0 8.578-11.123c2.413-4.01 4.335-8.282 5.86-12.658 1.529-4.377 2.667-8.854 3.649-13.334l.717-3.36c.269-1.092.491-2.196.796-3.283a87.89 87.89 0 0 1 2.037-6.479c3.075-8.545 7.012-16.83 11.463-24.796l-.546-.321a178.556 178.556 0 0 0-6.679 12.036c-2.068 4.096-3.999 8.27-5.658 12.565a89.538 89.538 0 0 0-2.259 6.54c-.343 1.103-.605 2.234-.913 3.352l-.808 3.322c-1.098 4.414-2.342 8.777-3.948 12.991-1.602 4.213-3.572 8.272-5.988 12.043a58.336 58.336 0 0 1-8.469 10.372l-2.465 2.28-2.607 2.124-.652.529-.686.49-1.37.98-1.368.98-1.428.978c-3.84 2.59-7.572 5.312-11.283 8.06a474.348 474.348 0 0 0-21.67 17.222c-3.528 2.974-7.022 5.99-10.448 9.098-3.428 3.118-6.81 6.252-10.05 9.732-3.037 3.306-6.295 6.504-9.573 9.69a1068.22 1068.22 0 0 1-9.935 9.481c-6.665 6.287-13.43 12.49-20.18 18.685a3.123 3.123 0 0 0-.539 3.964" transform="rotate(95 236.47 -77.708)"/>
            <path fill="url(#r)" d="M381.445 137.923a63.982 63.982 0 0 0 5.449-2.85 82.556 82.556 0 0 0 5.223-3.267c.847-.584 1.704-1.16 2.535-1.772.84-.6 1.677-1.21 2.483-1.858a93.662 93.662 0 0 0 4.776-4.01c.787-.688 1.533-1.424 2.296-2.145.753-.73 1.467-1.506 2.205-2.261.723-.77 1.414-1.584 2.116-2.386.685-.81 1.322-1.637 1.987-2.458 2.572-3.308 4.89-6.686 7.192-9.964 4.588-6.546 9.226-12.715 14.837-17.313 1.42-1.117 2.854-2.198 4.37-3.127.375-.24.742-.492 1.122-.722l1.175-.623 2.622-1.397c2.136-1.142 4.06-2.503 5.808-3.954.449-.357.885-.721 1.296-1.1.416-.376.843-.744 1.248-1.13.781-.781 1.59-1.552 2.318-2.358 3.011-3.181 5.572-6.574 7.988-9.987 2.397-3.43 4.616-6.902 6.766-10.374 4.294-6.935 8.393-13.857 12.794-20.28 1.094-1.609 2.223-3.172 3.411-4.635.588-.748 1.202-1.439 1.805-2.148l.935-1.009c.32-.334.68-.657 1.019-.988a60.804 60.804 0 0 1 9.003-7.24 73.463 73.463 0 0 1 7.638-4.405 135.81 135.81 0 0 0-2.407 1.967c-4.639 3.934-9.013 8.15-13.25 12.518-2.098 2.198-4.177 4.426-6.17 6.726-1.008 1.142-1.984 2.309-2.97 3.471a184.336 184.336 0 0 0-2.864 3.558A141.977 141.977 0 0 0 465.9 55.484c-.758 1.324-1.534 2.635-2.263 3.977a202.189 202.189 0 0 0-2.143 4.049 153.314 153.314 0 0 0-3.968 8.29 110.185 110.185 0 0 0-1.78 4.27c-.29.749-.56 1.36-.838 2.016l-.825 1.95c-1.126 2.593-2.428 5.12-3.856 7.589a89.646 89.646 0 0 1-10.102 14.005c-.984 1.07-1.928 2.195-2.965 3.226-.512.522-1 1.076-1.53 1.582l-1.57 1.55a86.938 86.938 0 0 1-3.266 2.993 68.013 68.013 0 0 1-3.412 2.847l.466.866c1.445-.557 2.786-1.246 4.15-1.94a88.957 88.957 0 0 0 3.961-2.292c2.591-1.624 5.067-3.44 7.458-5.385A72.037 72.037 0 0 0 456.13 91.51c.888-1.291 1.854-2.539 2.623-3.914l1.217-2.028.608-1.016.54-1.054 1.065-2.122c.35-.703.725-1.44 1.016-2.072.61-1.312 1.263-2.613 1.894-3.923 1.297-2.61 2.682-5.185 4.07-7.762a198.797 198.797 0 0 1 2.148-3.834c.709-1.283 1.45-2.55 2.18-3.821 2.94-5.08 5.903-10.157 8.963-15.19 3.036-5.052 6.206-10.035 9.64-14.84 3.454-4.782 7.217-9.362 11.482-13.4 1.085-.985 2.163-1.983 3.298-2.9.567-.463 1.133-.925 1.724-1.35.59-.425 1.158-.888 1.764-1.283 2.393-1.643 4.921-3.08 7.572-4.066a1.557 1.557 0 0 0 .979-1.764 1.547 1.547 0 0 0-1.821-1.218l-.028.006a80.048 80.048 0 0 0-6.035 1.477c-1.986.54-3.941 1.175-5.898 1.823-3.895 1.345-7.753 2.878-11.501 4.735-3.753 1.843-7.393 4.028-10.796 6.632-.428.326-.86.63-1.284.976l-1.269 1.071c-.81.731-1.623 1.472-2.362 2.25-1.52 1.534-2.926 3.124-4.273 4.736-2.694 3.232-5.104 6.586-7.444 9.937l-6.894 9.992c-2.292 3.286-4.58 6.532-6.966 9.62-2.362 3.105-4.82 6.073-7.394 8.736a49.555 49.555 0 0 1-3.965 3.696 26.528 26.528 0 0 1-4.152 2.89l-2.675 1.523-1.47.843c-.476.305-.935.633-1.403.948-1.9 1.224-3.611 2.687-5.293 4.148-3.34 2.969-6.134 6.369-8.636 9.828-2.484 3.48-4.658 7.056-6.685 10.609-2.042 3.544-3.945 7.07-5.971 10.414-.517.819-1.018 1.664-1.549 2.468-.547.787-1.056 1.6-1.622 2.387a102.086 102.086 0 0 1-3.562 4.64c-5.02 6.03-10.783 11.65-17.022 16.74l.5.844z" transform="rotate(95 236.47 -77.708)"/>
        </g>
        <g opacity=".2">
            <path fill="url(#v)" d="M179.936 220.438c1.854-2.096 3.81-4.076 5.834-5.987a123.828 123.828 0 0 1 6.26-5.535c4.302-3.556 8.831-6.87 13.79-9.726l1.868-1.065 1.944-.979.977-.485 1.02-.443 2.018-.867c2.256-.91 4.356-2.081 6.35-3.43 1.954-1.42 3.768-3.062 5.526-4.84 1.736-1.81 3.39-3.784 5.043-5.82 3.241-4.15 6.471-8.568 9.672-13.066 3.234-4.502 6.418-8.975 9.396-13.616 2.995-4.627 5.906-9.326 9.033-13.934 1.547-2.316 3.197-4.579 4.902-6.827l1.336-1.652.665-.833.707-.803 1.422-1.61 1.524-1.537.765-.773c.266-.248.543-.485.816-.729l1.65-1.453 1.772-1.339c.3-.218.591-.451.902-.658l.953-.595 3.533-2.18c.555-.315 1.086-.707 1.626-1.062.537-.37 1.08-.707 1.611-1.104 2.137-1.499 4.245-3.156 6.412-4.794a228.354 228.354 0 0 1 6.716-5.014c1.2-.806 2.358-1.648 3.628-2.407.63-.382 1.236-.789 1.89-1.149l1.964-1.078c2.68-1.345 5.487-2.612 8.48-3.385.74-.214 1.478-.438 2.239-.569.755-.154 1.512-.306 2.271-.446.758-.143 1.526-.182 2.29-.275l2.175-.222c2.257-.173 4.574-.656 6.867-1.379 4.6-1.436 9.077-3.803 13.2-6.73a59.811 59.811 0 0 0 11.224-10.438c3.337-3.966 6.16-8.408 8.493-13.176a71.712 71.712 0 0 0 3.039-7.423c.874-2.554 1.575-5.183 2.224-7.87l.898.073a53.772 53.772 0 0 1-.219 8.441c-.344 2.81-.85 5.628-1.601 8.4a60.089 60.089 0 0 1-2.93 8.127c-1.174 2.647-2.585 5.197-4.16 7.65a57.682 57.682 0 0 1-11.611 13.169 52.824 52.824 0 0 1-7.302 5.145 45.152 45.152 0 0 1-8.261 3.809c-2.915.985-5.996 1.67-9.21 1.884l-1.918.16c-.598.064-1.207.07-1.796.174-1.175.23-2.38.32-3.536.662-2.347.506-4.63 1.374-6.906 2.357-2.269 1.01-4.504 2.278-6.744 3.63-2.237 1.391-4.475 2.895-6.777 4.421-1.168.762-2.31 1.533-3.531 2.269-.607.37-1.197.75-1.815 1.108l-1.874 1.061c-.612.364-1.276.679-1.92 1.008-.653.321-1.28.669-1.962.953l-3.758 1.635-.862.375c-.284.134-.555.297-.834.445l-1.681.901-1.624 1.043c-.272.176-.547.345-.816.527l-.784.583-1.569 1.182-1.509 1.284-.757.644-.725.689-1.443 1.39c-.47.478-.922.975-1.381 1.466-.457.493-.926.977-1.356 1.498-.866 1.036-1.763 2.05-2.573 3.14-3.327 4.29-6.29 8.897-9.003 13.662-2.708 4.769-5.226 9.695-7.603 14.646-2.406 4.956-4.752 10.027-7.82 14.884-.805 1.201-1.568 2.42-2.481 3.576l-.662.878c-.215.296-.443.585-.693.862l-1.457 1.686c-2.035 2.195-4.335 4.22-6.891 5.938-2.58 1.69-5.386 3.03-8.28 4.02-2.424.828-4.786 1.727-7.19 2.858-4.793 2.186-9.538 4.788-14.27 7.461-4.741 2.67-9.455 5.475-14.257 8.226l-.573-.697z" transform="rotate(175 346.956 64.542)"/>
            <path fill="url(#m)" d="M354.191 46.337c1.031 1.475 1.598 3.046 2.024 4.65.41 1.606.6 3.246.606 4.89a22.49 22.49 0 0 1-.547 4.91 13.59 13.59 0 0 1-1.88 4.625c-.895 1.435-2.156 2.67-3.381 3.822-1.246 1.15-2.525 2.181-3.637 3.303-1.166 1.077-2.194 2.251-3.303 3.392a306.067 306.067 0 0 1-3.33 3.601c-.6.571-1.197 1.192-1.844 1.737-.325.27-.657.533-.992.799l-.51.387a28.744 28.744 0 0 1-2.318 1.6c-.633.385-1.268.765-1.892 1.163l-3.753 2.34c-1.265.743-2.528 1.466-3.854 2.076-2.634 1.245-5.374 2.282-8.198 3.236a84.71 84.71 0 0 1-4.335 1.333c-1.477.414-3.008.8-4.617 1.136l-.61-.671c.669-1.618 1.583-2.979 2.561-4.285a32.17 32.17 0 0 1 3.202-3.581 40.16 40.16 0 0 1 7.427-5.701c2.663-1.578 5.587-2.632 8.507-3.616 1.454-.513 2.914-.99 4.433-1.334.186-.045.383-.089.565-.124l.505-.101 1.036-.18c.697-.12 1.378-.29 2.092-.441.675-.209 1.386-.397 2.043-.682.65-.292 1.314-.593 1.897-1 .297-.198.594-.4.875-.618.27-.232.537-.469.796-.712.533-.475.958-1.057 1.379-1.628.776-1.203 1.3-2.572 1.579-4.003.3-1.422.443-2.842.683-4.177.225-1.341.627-2.583 1.066-3.849.435-1.265.879-2.546 1.352-3.856.97-2.626 1.955-5.34 3.47-8.347l.903-.094z" transform="rotate(175 346.956 64.542)"/>
            <path fill="url(#w)" d="M319.452 74.444c.816-1.506 1.863-2.818 2.983-4.092 1.122-1.27 2.343-2.453 3.6-3.604 1.286-1.114 2.597-2.213 3.968-3.235.682-.516 1.39-.992 2.092-1.484.17-.121.365-.249.514-.364l.443-.345.882-.68c.56-.479 1.065-1.011 1.554-1.539l.652-.86.326-.42.281-.453c.197-.293.387-.586.59-.87.183-.298.36-.6.558-.885.1-.144.196-.29.303-.428.094-.148.178-.301.277-.447.186-.297.406-.578.6-.877a68.9 68.9 0 0 0 2.313-3.788c.765-1.342 1.527-2.765 2.38-4.313l.59-.017c.845 1.676 1.101 3.465 1.094 5.256a15.433 15.433 0 0 1-1.055 5.314c-.172.427-.38.843-.59 1.258-.1.208-.215.411-.326.616-.124.198-.26.39-.392.583a18.22 18.22 0 0 1-.84 1.13c-.325.347-.66.684-.989 1.022l-.51.49-.557.447-1.113.876c-.379.279-.788.52-1.173.784-.395.253-.756.546-1.174.757l-1.22.672-.607.33c-.201.11-.372.185-.56.28-.731.36-1.476.708-2.193 1.095-1.476.717-2.901 1.512-4.318 2.333a54.68 54.68 0 0 0-4.127 2.649c-.674.467-1.316.967-1.955 1.48-.627.512-1.265 1.054-1.8 1.628l-.501-.299zM369.18 60.618c.815-1.506 1.863-2.818 2.983-4.092 1.122-1.27 2.343-2.453 3.6-3.604 1.285-1.114 2.598-2.214 3.967-3.234.683-.518 1.392-.993 2.092-1.486.17-.12.365-.247.515-.363l.443-.345.881-.68c.56-.48 1.066-1.011 1.555-1.54l.652-.86.325-.42.282-.452c.197-.293.387-.587.59-.87.183-.298.359-.6.558-.886.1-.143.195-.289.303-.427.094-.148.178-.301.277-.447.186-.297.405-.578.6-.877a68.57 68.57 0 0 0 2.313-3.788c.764-1.342 1.527-2.765 2.38-4.314l.59-.016c.845 1.677 1.1 3.465 1.093 5.256a15.42 15.42 0 0 1-1.054 5.314c-.172.427-.381.842-.59 1.258-.101.208-.215.41-.326.615-.124.199-.26.39-.392.584-.269.385-.542.766-.84 1.13-.324.347-.66.684-.989 1.022l-.51.49-.557.448-1.113.875c-.38.278-.789.52-1.173.784-.394.253-.756.546-1.174.757l-1.22.672-.607.33c-.202.109-.372.185-.56.28-.731.36-1.476.708-2.193 1.095-1.476.717-2.901 1.512-4.318 2.333a54.457 54.457 0 0 0-4.126 2.649c-.675.466-1.317.967-1.955 1.48-.628.512-1.266 1.054-1.801 1.628l-.501-.299z" transform="rotate(175 346.956 64.542)"/>
            <path fill="url(#x)" d="M266.144 161.483a155.166 155.166 0 0 0 7.907-6.01c2.555-2.083 5.045-4.224 7.344-6.499 2.3-2.257 4.463-4.64 6.128-7.124l.653-.95.813-1.135c.273-.372.544-.773.825-1.12l.85-1.02c1.13-1.396 2.319-2.61 3.493-3.895 2.397-2.439 4.693-4.987 7.116-7.352a51.362 51.362 0 0 1 7.843-6.368c2.817-1.847 5.739-3.546 8.797-5.036 3.071-1.475 6.227-2.818 9.702-3.691l.53.742c-1.925 3.002-4.118 5.6-6.368 8.105a111.375 111.375 0 0 1-7.046 7.062c-2.413 2.245-4.996 4.26-7.687 6.125-2.715 1.848-5.403 3.698-7.908 5.742-1.2 1.039-2.47 2.062-3.566 3.136l-.858.796c-.28.265-.505.531-.763.797l-.758.8c-.114.114-.292.325-.437.486l-.459.515c-2.461 2.728-5.19 4.898-7.988 6.89a95.145 95.145 0 0 1-8.663 5.365c-2.961 1.62-5.963 3.12-9.063 4.439l-.437-.8z" transform="rotate(175 346.956 64.542)"/>
            <path fill="url(#y)" d="M221.907 245.292l.065-.022a835.216 835.216 0 0 0 27.794-9.862c4.603-1.73 9.198-3.485 13.765-5.332 2.285-.92 4.57-1.844 6.85-2.794l6.78-2.82c4.524-1.893 9.078-3.77 13.589-5.77 4.502-2.018 8.993-4.1 13.379-6.403 4.378-2.317 8.696-4.784 12.755-7.663a60.353 60.353 0 0 0 5.838-4.638c1.849-1.663 3.554-3.494 5.023-5.487l-.45-.368c-3.355 3.525-7.415 6.236-11.59 8.673-4.204 2.407-8.594 4.497-13.05 6.438a285.908 285.908 0 0 1-13.567 5.44 1026.447 1026.447 0 0 1-13.783 5.067c-2.309.826-4.629 1.705-6.918 2.57-2.28.863-4.573 1.705-6.87 2.543l-13.82 4.963-.732.263a922.438 922.438 0 0 0 7.924-4.964c3.567-2.282 7.148-4.564 10.652-7.07 3.322-2.343 6.928-4.517 10.53-6.631 3.613-2.117 7.288-4.15 10.986-6.141a432.159 432.159 0 0 1 22.535-11.3c3.816-1.754 7.646-3.482 11.53-5.062l1.454-.605 1.483-.652 1.482-.652.741-.326.722-.37 2.876-1.494 2.772-1.683a56.42 56.42 0 0 0 10.006-8.172c3.002-3.088 5.622-6.513 7.908-10.113 2.29-3.602 4.255-7.374 6.08-11.182l1.352-2.858c.47-.924.903-1.865 1.405-2.776a81.381 81.381 0 0 1 3.19-5.377c4.552-7.012 9.82-13.611 15.477-19.817l-.42-.401a164.828 164.828 0 0 0-8.505 9.386c-2.714 3.237-5.32 6.573-7.71 10.074a82.532 82.532 0 0 0-3.4 5.384c-.54.918-1.013 1.876-1.523 2.813l-1.426 2.807c-1.914 3.724-3.948 7.372-6.274 10.81-2.32 3.44-4.937 6.664-7.891 9.538a53.82 53.82 0 0 1-9.75 7.521l-2.682 1.528-2.774 1.358-.694.338-.715.296-1.429.591-1.428.592-1.481.58c-3.973 1.517-7.878 3.177-11.77 4.863a436.752 436.752 0 0 0-22.973 10.902c-3.776 1.928-7.53 3.9-11.244 5.969-3.718 2.076-7.397 4.179-11.024 6.618-3.41 2.327-6.992 4.512-10.59 6.68a981.904 981.904 0 0 1-10.869 6.42c-7.276 4.239-14.624 8.383-21.955 12.523a2.887 2.887 0 0 0-1.32 3.439 2.912 2.912 0 0 0 3.684 1.818z" transform="rotate(175 346.956 64.542)"/>
            <path fill="url(#z)" d="M377.732 105.22c-.176.185-.38.608-.53.99-.158.395-.303.807-.443 1.223l-.826 2.527a86.217 86.217 0 0 1-1.842 5.059c-1.357 3.347-3.045 6.607-5.136 9.662a44.574 44.574 0 0 1-1.668 2.228c-.293.361-.583.726-.893 1.076l-.459.53-.397.486c-.516.65-1.064 1.258-1.524 1.96l-.716 1.016c-.24.337-.447.709-.671 1.06-1.8 2.82-3.29 5.896-4.725 9.075-1.446 3.178-2.703 6.525-4.257 9.876-1.56 3.336-3.593 6.627-6.321 9.448l-1.035 1.04c-.341.328-.67.62-1.009.928-.679.6-1.36 1.2-2.063 1.776a62.263 62.263 0 0 1-4.345 3.306 50.304 50.304 0 0 1-4.664 2.89c-.81.435-1.627.854-2.474 1.228-.845.377-1.694.729-2.606 1.002l-.396-.622 13.041-16.387c1.902-2.533 3.658-5.27 5.5-8.134 1.853-2.856 3.626-5.914 5.397-9.042 1.78-3.124 3.682-6.285 5.982-9.239.295-.363.566-.739.881-1.09l.94-1.055c.603-.717 1.313-1.357 1.982-2.018l.504-.487.46-.425c.313-.278.61-.576.91-.868.599-.59 1.172-1.208 1.737-1.839 2.262-2.525 4.217-5.38 5.956-8.398a86.733 86.733 0 0 0 2.474-4.644l1.211-2.38c.207-.397.419-.796.656-1.193a7.28 7.28 0 0 1 .387-.594c.148-.195.299-.4.575-.585l.407.615z" transform="rotate(175 346.956 64.542)"/>
            <path fill="url(#A)" d="M252.853 212.556a58.799 58.799 0 0 0 5.016-2.617 75.915 75.915 0 0 0 4.807-2.998c.78-.536 1.568-1.064 2.332-1.626a50.12 50.12 0 0 0 2.286-1.707 85.594 85.594 0 0 0 4.395-3.68c.724-.632 1.41-1.308 2.112-1.968.694-.671 1.35-1.383 2.03-2.076.666-.707 1.302-1.454 1.947-2.19.63-.743 1.217-1.503 1.829-2.257 2.367-3.035 4.5-6.137 6.618-9.145 4.223-6.01 8.491-11.671 13.655-15.892 1.306-1.026 2.626-2.018 4.021-2.87.346-.22.684-.453 1.033-.663l1.082-.572 2.412-1.283c1.967-1.048 3.738-2.298 5.346-3.629.413-.328.815-.662 1.192-1.01.383-.345.777-.683 1.148-1.036.72-.718 1.463-1.426 2.135-2.166 2.77-2.919 5.127-6.034 7.35-9.166 2.207-3.149 4.249-6.336 6.227-9.523 3.951-6.365 7.724-12.719 11.775-18.615 1.006-1.477 2.045-2.911 3.139-4.255.54-.686 1.106-1.32 1.66-1.972l.861-.925c.294-.308.625-.604.937-.907a55.935 55.935 0 0 1 8.286-6.646 67.694 67.694 0 0 1 7.029-4.043 124.89 124.89 0 0 0-2.215 1.805c-4.269 3.611-8.294 7.48-12.193 11.49-1.931 2.019-3.845 4.063-5.678 6.175-.928 1.048-1.826 2.118-2.734 3.186a171.253 171.253 0 0 0-2.636 3.266 130.315 130.315 0 0 0-9.48 13.844c-.698 1.215-1.412 2.418-2.083 3.65a189.68 189.68 0 0 0-1.972 3.716 140.776 140.776 0 0 0-3.651 7.61 100.15 100.15 0 0 0-1.638 3.92c-.267.687-.516 1.248-.771 1.85l-.76 1.79a68.057 68.057 0 0 1-3.548 6.966 82.28 82.28 0 0 1-9.297 12.856c-.906.982-1.774 2.015-2.729 2.96-.47.48-.92.988-1.408 1.452l-1.445 1.424c-.98.933-1.974 1.86-3.006 2.746a62.566 62.566 0 0 1-3.14 2.614l.43.794c1.329-.51 2.563-1.143 3.818-1.78a81.918 81.918 0 0 0 3.646-2.104c2.385-1.49 4.663-3.158 6.863-4.943a66.206 66.206 0 0 0 11.7-12.452c.818-1.185 1.707-2.33 2.415-3.593l1.12-1.861.56-.933.497-.967.98-1.948c.321-.646.667-1.323.935-1.902.562-1.204 1.161-2.399 1.742-3.6 1.193-2.396 2.468-4.76 3.745-7.126a180.746 180.746 0 0 1 1.978-3.519c.652-1.177 1.334-2.34 2.006-3.508 2.705-4.663 5.433-9.323 8.248-13.944 2.794-4.635 5.712-9.21 8.873-13.621 3.178-4.389 6.64-8.593 10.567-12.3.997-.903 1.99-1.82 3.034-2.662.522-.424 1.043-.849 1.587-1.238.542-.39 1.065-.816 1.623-1.178 2.202-1.508 4.528-2.826 6.968-3.732a1.428 1.428 0 0 0-.774-2.737l-.027.005c-1.922.386-3.722.84-5.553 1.356-1.828.496-3.627 1.079-5.428 1.674-3.585 1.233-7.135 2.641-10.585 4.346-3.453 1.69-6.803 3.697-9.935 6.086-.393.3-.791.58-1.182.897l-1.167.983c-.746.67-1.493 1.352-2.174 2.064-1.4 1.41-2.692 2.87-3.933 4.348-2.478 2.968-4.696 6.046-6.85 9.122l-6.344 9.172c-2.11 3.016-4.215 5.995-6.411 8.83-2.174 2.85-4.437 5.574-6.804 8.02a45.453 45.453 0 0 1-3.65 3.39 24.38 24.38 0 0 1-3.82 2.653l-2.463 1.399-1.354.774c-.436.279-.86.58-1.29.87-1.748 1.124-3.323 2.466-4.87 3.808-3.075 2.724-5.645 5.845-7.948 9.02-2.286 3.195-4.287 6.477-6.152 9.739-1.88 3.252-3.631 6.488-5.496 9.559-.475.752-.937 1.527-1.425 2.265-.503.722-.972 1.47-1.492 2.191a93.364 93.364 0 0 1-3.28 4.259c-4.618 5.535-9.923 10.694-15.664 15.365l.46.776z" transform="rotate(175 346.956 64.542)"/>
            <path fill="url(#B)" d="M385.885 227.946s2.299-6.303-1.238-13.656c-3.536-7.353 1.415-12.78 5.835-20.834 4.421-8.054 8.31-13.657 16.798-21.535 8.488-7.879 10.256-14.707 13.085-18.033 2.83-3.327 12.024-8.579 15.207-17.333 3.183-8.754 23.87-19.609 23.87-19.609s-14.322 12.78-17.505 20.485c-3.182 7.703-13.968 27.136-22.633 33.965-8.664 6.828-21.926 32.03-23.163 37.287-1.238 5.257-10.256 19.263-10.256 19.263" transform="rotate(175 346.956 64.542)"/>
            <path fill="url(#C)" d="M406.678 159.253c.386-1.615.905-3.18 1.49-4.729.568-1.557 1.268-3.06 1.985-4.563 1.497-2.968 3.252-5.85 5.407-8.47.544-.652 1.067-1.322 1.672-1.929.592-.616 1.153-1.265 1.816-1.818.652-.564 1.258-1.18 1.972-1.681l1.044-.782.525-.39.454-.349c2.447-1.745 4.727-4.04 6.972-6.28 1.103-1.16 2.227-2.297 3.305-3.496 1.11-1.163 2.19-2.362 3.285-3.55 1.107-1.175 2.173-2.396 3.287-3.574l3.28-3.6c4.356-4.822 8.678-9.73 12.565-14.942l1.143.97-5.84 5.509-5.873 5.466c-3.922 3.643-7.873 7.275-12.002 10.733-4.13 3.456-8.463 6.7-13.114 9.56-2.325 1.432-4.718 2.783-7.236 3.976-.638.287-1.264.587-1.917.853l-.983.392c-.32.13-.673.264-.951.386l-3.514 1.494c-4.665 2.203-9.225 4.835-13.775 7.484l-3.397 2.032c-1.134.678-2.244 1.402-3.378 2.083-2.268 1.364-4.486 2.822-6.728 4.24-8.935 5.74-17.8 11.652-26.763 17.499l-.299-.37c7.757-7.406 16.053-14.19 24.652-20.61 8.675-6.313 17.568-12.426 27.646-16.908 1.292-.518 2.604-1.009 3.903-1.51l.915-.338.887-.321c.592-.216 1.175-.48 1.766-.712 2.35-.996 4.664-2.175 6.937-3.447a124.84 124.84 0 0 0 6.727-4.064c2.226-1.406 4.416-2.881 6.612-4.36 4.363-3 8.675-6.124 12.807-9.475 1.037-.832 2.048-1.696 3.065-2.553l1.517-1.296 1.487-1.33c.985-.893 1.972-1.786 2.942-2.695.958-.919 1.927-1.837 2.846-2.783a.753.753 0 0 1 1.062-.017.75.75 0 0 1 .093.97l-.012.016c-3.772 5.35-7.397 10.795-11.226 16.133-3.842 5.324-7.958 10.478-12.707 15.144-.574.597-1.202 1.16-1.812 1.732-.625.563-1.21 1.148-1.875 1.683l-1.969 1.618c-.681.52-1.427 1-2.138 1.497l-1.012.687-.953.633c-.656.392-1.23.915-1.846 1.378-.622.456-1.179 1-1.766 1.51-.598.5-1.13 1.076-1.684 1.632-4.358 4.526-7.918 9.988-10.844 15.785l-.452-.153z" transform="rotate(175 346.956 64.542)"/>
            <path fill="url(#D)" d="M377.9 74.418v.425c.009 1.9 1.148 3.68 2.983 4.374 2.362.895 4.983-.348 5.854-2.775.097-.271.246-.644.38-.975l.413-1.034c.28-.693.578-1.38.873-2.072.6-1.376 1.23-2.74 1.91-4.064.682-1.32 1.377-2.629 2.075-3.915a49.449 49.449 0 0 1 2.198-3.76c.41-.551.803-1.188 1.263-1.673l.34-.392.171-.198.238-.25.957-1.01c1.17-1.403 2.126-2.848 2.958-4.292.837-1.436 1.6-2.872 2.408-4.243a33.263 33.263 0 0 1 2.667-3.9c1.965-2.428 4.349-4.337 6.607-5.921.552-.42 1.14-.774 1.691-1.162.533-.412 1.133-.727 1.677-1.113.516-.385 1.173-.765 1.764-1.177.598-.417 1.22-.792 1.832-1.19a178.81 178.81 0 0 1 7.595-4.594l8.145-4.603-.09-.896c-1.669-.414-3.324-.516-4.984-.499-1.655.028-3.31.185-4.932.496-3.26.584-6.428 1.682-9.42 3.174-.743.38-1.492.754-2.205 1.197-.727.432-1.426.836-2.154 1.412-.713.549-1.434 1.087-2.05 1.754-.632.646-1.265 1.286-1.779 2.03-.27.36-.537.718-.792 1.085-.25.37-.473.757-.694 1.142-.22.387-.447.766-.653 1.153l-.576 1.177c-.762 1.564-1.347 3.157-1.99 4.675-.618 1.52-1.252 3.006-1.978 4.402a25.806 25.806 0 0 1-2.451 3.925 12.09 12.09 0 0 1-3.144 2.91l-.889.452-.223.116-.294.162-.59.328c-.824.424-1.52.936-2.279 1.434-.436.319-.857.65-1.271.989.435-2.054.962-4.08 1.635-6.081.849-2.506 1.948-4.93 3.539-7.37l-.523-.724c-.694.26-1.413.538-2.064.92-.688.346-1.313.782-1.947 1.229-1.244.916-2.364 2.003-3.397 3.17-2.05 2.35-3.657 5.056-4.925 7.86-.317.703-.601 1.415-.891 2.13-.272.715-.527 1.44-.765 2.166a44.892 44.892 0 0 0-1.215 4.41 42.663 42.663 0 0 0-.751 4.498 44.51 44.51 0 0 0-.198 2.282l-.049 1.16c-.013.408-.012.749-.01 1.246" transform="rotate(175 346.956 64.542)"/>
            <path fill="url(#E)" d="M359.787 155.63a2.915 2.915 0 0 0 3.998.928l.057-.036a830.75 830.75 0 0 0 24.735-15.88c4.075-2.725 8.135-5.47 12.147-8.3a602.759 602.759 0 0 0 6.012-4.266l5.94-4.277c3.959-2.864 7.952-5.72 11.875-8.684 3.91-2.981 7.794-6.02 11.526-9.25 3.72-3.243 7.349-6.617 10.63-10.332a59.984 59.984 0 0 0 4.606-5.827c1.414-2.033 2.649-4.196 3.618-6.465l-.523-.254c-2.448 4.182-5.769 7.735-9.264 11.047-3.53 3.291-7.316 6.316-11.2 9.21a283.805 283.805 0 0 1-11.928 8.36c-4.042 2.71-8.12 5.378-12.227 8.046-2.052 1.325-4.105 2.705-6.13 4.064a582.431 582.431 0 0 1-6.09 4.028l-12.284 7.955c-.217.14-.433.281-.65.42a903.584 903.584 0 0 0 6.556-6.616c2.94-3.024 5.894-6.05 8.723-9.277 2.69-3.03 5.692-5.957 8.706-8.827 3.023-2.874 6.126-5.682 9.262-8.453a430.043 430.043 0 0 1 19.294-16.082c3.304-2.568 6.629-5.114 10.038-7.529l1.273-.917 1.292-.97 1.29-.97.644-.484.616-.523 2.45-2.103 2.308-2.262a56.011 56.011 0 0 0 7.842-10.201c2.207-3.678 3.964-7.596 5.358-11.609 1.398-4.014 2.438-8.121 3.336-12.23l.656-3.08c.246-1.003.449-2.015.727-3.013a80.795 80.795 0 0 1 1.863-5.941c2.811-7.837 6.41-15.437 10.48-22.743l-.499-.294a163.916 163.916 0 0 0-6.106 11.039c-1.891 3.757-3.656 7.585-5.173 11.524a82.297 82.297 0 0 0-2.066 5.998c-.313 1.012-.553 2.05-.834 3.074l-.739 3.047c-1.004 4.049-2.141 8.05-3.61 11.915-1.464 3.864-3.265 7.587-5.474 11.046a53.47 53.47 0 0 1-7.744 9.512l-2.253 2.091-2.384 1.948-.596.486-.627.449-1.252.899-1.251.898-1.306.898c-3.51 2.375-6.923 4.872-10.316 7.392a433.913 433.913 0 0 0-19.812 15.795c-3.226 2.728-6.42 5.494-9.553 8.345-3.134 2.86-6.226 5.734-9.188 8.925-2.777 3.033-5.756 5.966-8.753 8.888a977.997 977.997 0 0 1-9.083 8.696c-6.094 5.765-12.28 11.456-18.45 17.136a2.871 2.871 0 0 0-.493 3.636" transform="rotate(175 346.956 64.542)"/>
            <path fill="url(#A)" d="M351.045 126.979a58.937 58.937 0 0 0 5.015-2.617 76.007 76.007 0 0 0 4.807-2.998c.78-.537 1.568-1.064 2.332-1.627.773-.55 1.543-1.11 2.286-1.706a86.143 86.143 0 0 0 4.395-3.68c.724-.632 1.41-1.308 2.113-1.969.693-.67 1.35-1.383 2.029-2.076.666-.707 1.302-1.454 1.947-2.19.63-.743 1.217-1.502 1.829-2.256 2.367-3.036 4.5-6.138 6.619-9.146 4.222-6.009 8.49-11.67 13.654-15.891 1.306-1.026 2.626-2.019 4.022-2.871.345-.22.683-.452 1.032-.663l1.082-.571 2.412-1.283c1.967-1.048 3.738-2.298 5.346-3.63.413-.328.815-.662 1.192-1.009.383-.345.776-.683 1.149-1.037.719-.718 1.463-1.425 2.134-2.165 2.77-2.92 5.127-6.034 7.35-9.167 2.207-3.148 4.249-6.335 6.227-9.522 3.952-6.366 7.724-12.72 11.775-18.616 1.006-1.476 2.045-2.911 3.139-4.254.54-.687 1.106-1.32 1.66-1.972l.86-.926c.296-.307.627-.603.938-.907a55.932 55.932 0 0 1 8.286-6.646 67.651 67.651 0 0 1 7.03-4.043c-.748.592-1.483 1.197-2.216 1.805-4.269 3.611-8.294 7.481-12.194 11.49-1.93 2.019-3.844 4.064-5.677 6.175-.928 1.048-1.826 2.12-2.734 3.186a169.283 169.283 0 0 0-2.636 3.266 130.308 130.308 0 0 0-9.48 13.844c-.698 1.215-1.411 2.419-2.082 3.65a185.425 185.425 0 0 0-1.973 3.717 140.57 140.57 0 0 0-3.651 7.61c-.57 1.293-1.12 2.596-1.638 3.92-.267.686-.516 1.247-.771 1.85l-.76 1.79a67.944 67.944 0 0 1-3.548 6.965 82.293 82.293 0 0 1-9.297 12.856c-.906.982-1.774 2.015-2.729 2.96-.47.48-.92.988-1.408 1.453l-1.445 1.423c-.98.933-1.974 1.86-3.006 2.747a62.554 62.554 0 0 1-3.14 2.613l.43.795c1.329-.51 2.563-1.144 3.818-1.78a81.918 81.918 0 0 0 3.646-2.105c2.384-1.49 4.663-3.157 6.863-4.942a66.193 66.193 0 0 0 11.7-12.453c.818-1.185 1.707-2.33 2.415-3.593l1.12-1.86.56-.934.497-.967.98-1.947c.321-.646.667-1.323.935-1.902.561-1.205 1.162-2.4 1.742-3.602 1.194-2.395 2.468-4.759 3.745-7.125a182.348 182.348 0 0 1 1.978-3.519c.652-1.177 1.334-2.34 2.006-3.507 2.705-4.664 5.433-9.323 8.248-13.944 2.795-4.636 5.712-9.21 8.873-13.622 3.178-4.389 6.64-8.593 10.566-12.3.998-.903 1.99-1.819 3.035-2.662.522-.423 1.043-.848 1.587-1.238.542-.39 1.065-.815 1.623-1.178 2.202-1.508 4.529-2.826 6.968-3.732.646-.239 1.04-.92.901-1.619a1.424 1.424 0 0 0-1.676-1.118l-.025.005c-1.923.387-3.724.84-5.554 1.356-1.827.496-3.627 1.079-5.428 1.674-3.585 1.234-7.135 2.642-10.585 4.346-3.453 1.691-6.803 3.697-9.935 6.087-.393.3-.791.579-1.182.897l-1.167.983c-.746.67-1.493 1.35-2.174 2.064a69.392 69.392 0 0 0-3.933 4.348c-2.478 2.967-4.696 6.045-6.85 9.122l-6.345 9.17c-2.109 3.018-4.215 5.996-6.41 8.832-2.174 2.85-4.436 5.574-6.804 8.018a45.558 45.558 0 0 1-3.65 3.392 24.415 24.415 0 0 1-3.82 2.653l-2.463 1.399-1.353.773c-.438.28-.86.58-1.29.87-1.749 1.124-3.324 2.467-4.872 3.808-3.074 2.725-5.644 5.846-7.947 9.021-2.286 3.195-4.287 6.477-6.152 9.738-1.88 3.253-3.631 6.49-5.496 9.559-.475.752-.937 1.527-1.425 2.266-.503.722-.972 1.47-1.492 2.19a93.733 93.733 0 0 1-3.279 4.26c-4.62 5.535-9.924 10.694-15.665 15.365l.46.776z" transform="rotate(175 346.956 64.542)"/>
        </g>
    </g>
</svg>
